<mxfile host="Electron" modified="2023-05-28T15:52:19.263Z" agent="Mozilla/5.0 (Windows NT 10.0; Win64; x64) AppleWebKit/537.36 (KHTML, like Gecko) draw.io/21.1.2 Chrome/106.0.5249.199 Electron/21.4.3 Safari/537.36" etag="Rp01nz4qSKjYN6TcqBSh" version="21.1.2" type="device">
  <diagram name="Page-1" id="9AdJNlwn2DJqrkA4Fs8l">
    <mxGraphModel dx="2056" dy="817" grid="1" gridSize="10" guides="1" tooltips="1" connect="1" arrows="1" fold="1" page="1" pageScale="1" pageWidth="850" pageHeight="1100" math="0" shadow="0">
      <root>
        <mxCell id="0" />
        <mxCell id="1" parent="0" />
        <mxCell id="MlbKNlfNxSkWplCLyYiL-1" value="AbstractList" style="swimlane;fontStyle=1;align=center;verticalAlign=top;childLayout=stackLayout;horizontal=1;startSize=26;horizontalStack=0;resizeParent=1;resizeParentMax=0;resizeLast=0;collapsible=1;marginBottom=0;" parent="1" vertex="1">
          <mxGeometry x="50" y="80" width="210" height="170" as="geometry" />
        </mxCell>
        <mxCell id="MlbKNlfNxSkWplCLyYiL-2" value="- list: List" style="text;strokeColor=none;fillColor=none;align=left;verticalAlign=top;spacingLeft=4;spacingRight=4;overflow=hidden;rotatable=0;points=[[0,0.5],[1,0.5]];portConstraint=eastwest;" parent="MlbKNlfNxSkWplCLyYiL-1" vertex="1">
          <mxGeometry y="26" width="210" height="26" as="geometry" />
        </mxCell>
        <mxCell id="MlbKNlfNxSkWplCLyYiL-3" value="" style="line;strokeWidth=1;fillColor=none;align=left;verticalAlign=middle;spacingTop=-1;spacingLeft=3;spacingRight=3;rotatable=0;labelPosition=right;points=[];portConstraint=eastwest;strokeColor=inherit;" parent="MlbKNlfNxSkWplCLyYiL-1" vertex="1">
          <mxGeometry y="52" width="210" height="8" as="geometry" />
        </mxCell>
        <mxCell id="MlbKNlfNxSkWplCLyYiL-4" value="+ create_iterator(Iterator_class)&#xa;+ count()&#xa;+ append(item)&#xa;+ remove(item)" style="text;strokeColor=none;fillColor=none;align=left;verticalAlign=top;spacingLeft=4;spacingRight=4;overflow=hidden;rotatable=0;points=[[0,0.5],[1,0.5]];portConstraint=eastwest;fontStyle=1" parent="MlbKNlfNxSkWplCLyYiL-1" vertex="1">
          <mxGeometry y="60" width="210" height="110" as="geometry" />
        </mxCell>
        <mxCell id="MlbKNlfNxSkWplCLyYiL-5" value="AbstractIterator" style="swimlane;fontStyle=1;align=center;verticalAlign=top;childLayout=stackLayout;horizontal=1;startSize=26;horizontalStack=0;resizeParent=1;resizeParentMax=0;resizeLast=0;collapsible=1;marginBottom=0;" parent="1" vertex="1">
          <mxGeometry x="400" y="80" width="210" height="170" as="geometry" />
        </mxCell>
        <mxCell id="MlbKNlfNxSkWplCLyYiL-6" value="- index&#xa;-list" style="text;strokeColor=none;fillColor=none;align=left;verticalAlign=top;spacingLeft=4;spacingRight=4;overflow=hidden;rotatable=0;points=[[0,0.5],[1,0.5]];portConstraint=eastwest;" parent="MlbKNlfNxSkWplCLyYiL-5" vertex="1">
          <mxGeometry y="26" width="210" height="44" as="geometry" />
        </mxCell>
        <mxCell id="MlbKNlfNxSkWplCLyYiL-7" value="" style="line;strokeWidth=1;fillColor=none;align=left;verticalAlign=middle;spacingTop=-1;spacingLeft=3;spacingRight=3;rotatable=0;labelPosition=right;points=[];portConstraint=eastwest;strokeColor=inherit;" parent="MlbKNlfNxSkWplCLyYiL-5" vertex="1">
          <mxGeometry y="70" width="210" height="8" as="geometry" />
        </mxCell>
        <mxCell id="MlbKNlfNxSkWplCLyYiL-8" value="+ first()&#xa;+ next()&#xa;+ is_done()&#xa;+ current_item()" style="text;strokeColor=none;fillColor=none;align=left;verticalAlign=top;spacingLeft=4;spacingRight=4;overflow=hidden;rotatable=0;points=[[0,0.5],[1,0.5]];portConstraint=eastwest;fontStyle=1" parent="MlbKNlfNxSkWplCLyYiL-5" vertex="1">
          <mxGeometry y="78" width="210" height="92" as="geometry" />
        </mxCell>
        <mxCell id="MlbKNlfNxSkWplCLyYiL-27" style="edgeStyle=orthogonalEdgeStyle;rounded=0;orthogonalLoop=1;jettySize=auto;html=1;exitX=0.75;exitY=0;exitDx=0;exitDy=0;entryX=0.705;entryY=1;entryDx=0;entryDy=0;entryPerimeter=0;endArrow=block;endFill=0;endSize=16;" parent="1" source="MlbKNlfNxSkWplCLyYiL-9" target="MlbKNlfNxSkWplCLyYiL-4" edge="1">
          <mxGeometry relative="1" as="geometry" />
        </mxCell>
        <mxCell id="MlbKNlfNxSkWplCLyYiL-9" value="PersonList" style="swimlane;fontStyle=1;align=center;verticalAlign=top;childLayout=stackLayout;horizontal=1;startSize=26;horizontalStack=0;resizeParent=1;resizeParentMax=0;resizeLast=0;collapsible=1;marginBottom=0;" parent="1" vertex="1">
          <mxGeometry x="40" y="310" width="210" height="170" as="geometry" />
        </mxCell>
        <mxCell id="MlbKNlfNxSkWplCLyYiL-10" value="- list: List" style="text;strokeColor=none;fillColor=none;align=left;verticalAlign=top;spacingLeft=4;spacingRight=4;overflow=hidden;rotatable=0;points=[[0,0.5],[1,0.5]];portConstraint=eastwest;" parent="MlbKNlfNxSkWplCLyYiL-9" vertex="1">
          <mxGeometry y="26" width="210" height="26" as="geometry" />
        </mxCell>
        <mxCell id="MlbKNlfNxSkWplCLyYiL-11" value="" style="line;strokeWidth=1;fillColor=none;align=left;verticalAlign=middle;spacingTop=-1;spacingLeft=3;spacingRight=3;rotatable=0;labelPosition=right;points=[];portConstraint=eastwest;strokeColor=inherit;" parent="MlbKNlfNxSkWplCLyYiL-9" vertex="1">
          <mxGeometry y="52" width="210" height="8" as="geometry" />
        </mxCell>
        <mxCell id="MlbKNlfNxSkWplCLyYiL-12" value="+ create_iterator(Iterator_class)&#xa;+ count()&#xa;+ append(item)&#xa;+ remove(item)" style="text;strokeColor=none;fillColor=none;align=left;verticalAlign=top;spacingLeft=4;spacingRight=4;overflow=hidden;rotatable=0;points=[[0,0.5],[1,0.5]];portConstraint=eastwest;fontStyle=0" parent="MlbKNlfNxSkWplCLyYiL-9" vertex="1">
          <mxGeometry y="60" width="210" height="110" as="geometry" />
        </mxCell>
        <mxCell id="MlbKNlfNxSkWplCLyYiL-28" style="edgeStyle=orthogonalEdgeStyle;rounded=0;orthogonalLoop=1;jettySize=auto;html=1;entryX=0.167;entryY=1;entryDx=0;entryDy=0;entryPerimeter=0;endSize=16;endArrow=block;endFill=0;" parent="1" source="MlbKNlfNxSkWplCLyYiL-13" target="MlbKNlfNxSkWplCLyYiL-8" edge="1">
          <mxGeometry relative="1" as="geometry" />
        </mxCell>
        <mxCell id="MlbKNlfNxSkWplCLyYiL-13" value="StraightIterator" style="swimlane;fontStyle=1;align=center;verticalAlign=top;childLayout=stackLayout;horizontal=1;startSize=26;horizontalStack=0;resizeParent=1;resizeParentMax=0;resizeLast=0;collapsible=1;marginBottom=0;" parent="1" vertex="1">
          <mxGeometry x="330" y="310" width="210" height="170" as="geometry" />
        </mxCell>
        <mxCell id="MlbKNlfNxSkWplCLyYiL-14" value="- index&#xa;-list" style="text;strokeColor=none;fillColor=none;align=left;verticalAlign=top;spacingLeft=4;spacingRight=4;overflow=hidden;rotatable=0;points=[[0,0.5],[1,0.5]];portConstraint=eastwest;" parent="MlbKNlfNxSkWplCLyYiL-13" vertex="1">
          <mxGeometry y="26" width="210" height="44" as="geometry" />
        </mxCell>
        <mxCell id="MlbKNlfNxSkWplCLyYiL-15" value="" style="line;strokeWidth=1;fillColor=none;align=left;verticalAlign=middle;spacingTop=-1;spacingLeft=3;spacingRight=3;rotatable=0;labelPosition=right;points=[];portConstraint=eastwest;strokeColor=inherit;" parent="MlbKNlfNxSkWplCLyYiL-13" vertex="1">
          <mxGeometry y="70" width="210" height="8" as="geometry" />
        </mxCell>
        <mxCell id="MlbKNlfNxSkWplCLyYiL-16" value="+ first()&#xa;+ next()&#xa;+ is_done()&#xa;+ current_item()" style="text;strokeColor=none;fillColor=none;align=left;verticalAlign=top;spacingLeft=4;spacingRight=4;overflow=hidden;rotatable=0;points=[[0,0.5],[1,0.5]];portConstraint=eastwest;fontStyle=0" parent="MlbKNlfNxSkWplCLyYiL-13" vertex="1">
          <mxGeometry y="78" width="210" height="92" as="geometry" />
        </mxCell>
        <mxCell id="MlbKNlfNxSkWplCLyYiL-29" style="edgeStyle=orthogonalEdgeStyle;rounded=0;orthogonalLoop=1;jettySize=auto;html=1;entryX=1;entryY=0.5;entryDx=0;entryDy=0;endSize=16;endArrow=block;endFill=0;" parent="1" source="MlbKNlfNxSkWplCLyYiL-17" target="MlbKNlfNxSkWplCLyYiL-8" edge="1">
          <mxGeometry relative="1" as="geometry" />
        </mxCell>
        <mxCell id="MlbKNlfNxSkWplCLyYiL-17" value="BackwardIterator" style="swimlane;fontStyle=1;align=center;verticalAlign=top;childLayout=stackLayout;horizontal=1;startSize=26;horizontalStack=0;resizeParent=1;resizeParentMax=0;resizeLast=0;collapsible=1;marginBottom=0;" parent="1" vertex="1">
          <mxGeometry x="590" y="310" width="210" height="170" as="geometry" />
        </mxCell>
        <mxCell id="MlbKNlfNxSkWplCLyYiL-18" value="- index&#xa;-list" style="text;strokeColor=none;fillColor=none;align=left;verticalAlign=top;spacingLeft=4;spacingRight=4;overflow=hidden;rotatable=0;points=[[0,0.5],[1,0.5]];portConstraint=eastwest;" parent="MlbKNlfNxSkWplCLyYiL-17" vertex="1">
          <mxGeometry y="26" width="210" height="44" as="geometry" />
        </mxCell>
        <mxCell id="MlbKNlfNxSkWplCLyYiL-19" value="" style="line;strokeWidth=1;fillColor=none;align=left;verticalAlign=middle;spacingTop=-1;spacingLeft=3;spacingRight=3;rotatable=0;labelPosition=right;points=[];portConstraint=eastwest;strokeColor=inherit;" parent="MlbKNlfNxSkWplCLyYiL-17" vertex="1">
          <mxGeometry y="70" width="210" height="8" as="geometry" />
        </mxCell>
        <mxCell id="MlbKNlfNxSkWplCLyYiL-20" value="+ first()&#xa;+ next()&#xa;+ is_done()&#xa;+ current_item()" style="text;strokeColor=none;fillColor=none;align=left;verticalAlign=top;spacingLeft=4;spacingRight=4;overflow=hidden;rotatable=0;points=[[0,0.5],[1,0.5]];portConstraint=eastwest;fontStyle=0" parent="MlbKNlfNxSkWplCLyYiL-17" vertex="1">
          <mxGeometry y="78" width="210" height="92" as="geometry" />
        </mxCell>
        <mxCell id="MlbKNlfNxSkWplCLyYiL-25" style="edgeStyle=orthogonalEdgeStyle;rounded=0;orthogonalLoop=1;jettySize=auto;html=1;entryX=0;entryY=0.703;entryDx=0;entryDy=0;entryPerimeter=0;endArrow=block;endFill=0;endSize=16;" parent="1" source="MlbKNlfNxSkWplCLyYiL-21" target="MlbKNlfNxSkWplCLyYiL-4" edge="1">
          <mxGeometry relative="1" as="geometry" />
        </mxCell>
        <mxCell id="MlbKNlfNxSkWplCLyYiL-21" value="HouseList" style="swimlane;fontStyle=1;align=center;verticalAlign=top;childLayout=stackLayout;horizontal=1;startSize=26;horizontalStack=0;resizeParent=1;resizeParentMax=0;resizeLast=0;collapsible=1;marginBottom=0;" parent="1" vertex="1">
          <mxGeometry x="-230" y="310" width="210" height="140" as="geometry" />
        </mxCell>
        <mxCell id="MlbKNlfNxSkWplCLyYiL-22" value="- list: List [House]" style="text;strokeColor=none;fillColor=none;align=left;verticalAlign=top;spacingLeft=4;spacingRight=4;overflow=hidden;rotatable=0;points=[[0,0.5],[1,0.5]];portConstraint=eastwest;" parent="MlbKNlfNxSkWplCLyYiL-21" vertex="1">
          <mxGeometry y="26" width="210" height="26" as="geometry" />
        </mxCell>
        <mxCell id="MlbKNlfNxSkWplCLyYiL-23" value="" style="line;strokeWidth=1;fillColor=none;align=left;verticalAlign=middle;spacingTop=-1;spacingLeft=3;spacingRight=3;rotatable=0;labelPosition=right;points=[];portConstraint=eastwest;strokeColor=inherit;" parent="MlbKNlfNxSkWplCLyYiL-21" vertex="1">
          <mxGeometry y="52" width="210" height="8" as="geometry" />
        </mxCell>
        <mxCell id="MlbKNlfNxSkWplCLyYiL-24" value="+ create_iterator(Iterator_class)&#xa;+ count()&#xa;+ append(item)&#xa;+ remove(item)" style="text;strokeColor=none;fillColor=none;align=left;verticalAlign=top;spacingLeft=4;spacingRight=4;overflow=hidden;rotatable=0;points=[[0,0.5],[1,0.5]];portConstraint=eastwest;fontStyle=0" parent="MlbKNlfNxSkWplCLyYiL-21" vertex="1">
          <mxGeometry y="60" width="210" height="80" as="geometry" />
        </mxCell>
        <mxCell id="MlbKNlfNxSkWplCLyYiL-33" value="Use" style="endArrow=open;endSize=12;dashed=1;html=1;rounded=0;exitX=0.99;exitY=0.006;exitDx=0;exitDy=0;exitPerimeter=0;" parent="1" source="MlbKNlfNxSkWplCLyYiL-4" edge="1">
          <mxGeometry width="160" relative="1" as="geometry">
            <mxPoint x="280" y="140" as="sourcePoint" />
            <mxPoint x="400" y="140" as="targetPoint" />
          </mxGeometry>
        </mxCell>
        <mxCell id="B8ZuRaoxFTM4tP1BcUPt-5" style="edgeStyle=orthogonalEdgeStyle;rounded=0;orthogonalLoop=1;jettySize=auto;html=1;entryX=0.5;entryY=1;entryDx=0;entryDy=0;entryPerimeter=0;endArrow=diamondThin;endFill=0;endSize=24;" edge="1" parent="1" source="B8ZuRaoxFTM4tP1BcUPt-1" target="MlbKNlfNxSkWplCLyYiL-24">
          <mxGeometry relative="1" as="geometry" />
        </mxCell>
        <mxCell id="B8ZuRaoxFTM4tP1BcUPt-1" value="House" style="swimlane;fontStyle=1;align=center;verticalAlign=top;childLayout=stackLayout;horizontal=1;startSize=26;horizontalStack=0;resizeParent=1;resizeParentMax=0;resizeLast=0;collapsible=1;marginBottom=0;" vertex="1" parent="1">
          <mxGeometry x="-230" y="500" width="210" height="78" as="geometry" />
        </mxCell>
        <mxCell id="B8ZuRaoxFTM4tP1BcUPt-2" value="+ street&#xa;+ house" style="text;strokeColor=none;fillColor=none;align=left;verticalAlign=top;spacingLeft=4;spacingRight=4;overflow=hidden;rotatable=0;points=[[0,0.5],[1,0.5]];portConstraint=eastwest;" vertex="1" parent="B8ZuRaoxFTM4tP1BcUPt-1">
          <mxGeometry y="26" width="210" height="44" as="geometry" />
        </mxCell>
        <mxCell id="B8ZuRaoxFTM4tP1BcUPt-3" value="" style="line;strokeWidth=1;fillColor=none;align=left;verticalAlign=middle;spacingTop=-1;spacingLeft=3;spacingRight=3;rotatable=0;labelPosition=right;points=[];portConstraint=eastwest;strokeColor=inherit;" vertex="1" parent="B8ZuRaoxFTM4tP1BcUPt-1">
          <mxGeometry y="70" width="210" height="8" as="geometry" />
        </mxCell>
      </root>
    </mxGraphModel>
  </diagram>
</mxfile>
